<svg width="24" height="24" viewBox="0 0 24 24" fill="none" xmlns="http://www.w3.org/2000/svg">
<path d="M12 21C16.9705 21 21 16.9705 21 12C21 7.02943 16.9705 3 12 3C7.02943 3 3 7.02943 3 12C3 16.9705 7.02943 21 12 21Z" stroke="#022F36" stroke-width="1.92" stroke-linecap="round" stroke-linejoin="round"/>
<path d="M8.625 11.25C9.24632 11.25 9.75 10.7463 9.75 10.125C9.75 9.50368 9.24632 9 8.625 9C8.00368 9 7.5 9.50368 7.5 10.125C7.5 10.7463 8.00368 11.25 8.625 11.25Z" fill="#022F36"/>
<path d="M14.25 10.125H16.5" stroke="#022F36" stroke-width="1.92" stroke-linecap="round" stroke-linejoin="round"/>
<path d="M15.9001 14.25C15.5036 14.933 14.9347 15.5 14.2502 15.8941C13.5659 16.2882 12.7899 16.4957 12.0001 16.4957C11.2103 16.4957 10.4344 16.2882 9.74993 15.8941C9.0655 15.5 8.49658 14.933 8.1001 14.25" stroke="#022F36" stroke-width="1.92" stroke-linecap="round" stroke-linejoin="round"/>
</svg>
