<svg width="24" height="15" viewBox="0 0 24 15" fill="none" xmlns="http://www.w3.org/2000/svg">
<path d="M16.5 0.449951H7.5C5.70979 0.449951 3.9929 1.16111 2.72702 2.42698C1.46116 3.69286 0.75 5.40974 0.75 7.19995C0.75 8.99016 1.46116 10.707 2.72702 11.9729C3.9929 13.2388 5.70979 13.95 7.5 13.95H16.5C18.2902 13.95 20.0071 13.2388 21.273 11.9729C22.5389 10.707 23.25 8.99016 23.25 7.19995C23.25 5.40974 22.5389 3.69286 21.273 2.42698C20.0071 1.16111 18.2902 0.449951 16.5 0.449951ZM16.5 12.45H7.5C6.10762 12.45 4.77226 11.8968 3.78769 10.9123C2.80313 9.9277 2.25 8.59234 2.25 7.19995C2.25 5.80757 2.80313 4.47221 3.78769 3.48764C4.77226 2.50308 6.10762 1.94995 7.5 1.94995H16.5C17.8924 1.94995 19.2277 2.50308 20.2123 3.48764C21.1969 4.47221 21.75 5.80757 21.75 7.19995C21.75 8.59234 21.1969 9.9277 20.2123 10.9123C19.2277 11.8968 17.8924 12.45 16.5 12.45ZM16.5 3.44995C15.7583 3.44995 15.0332 3.66989 14.4166 4.08194C13.7999 4.494 13.3193 5.07967 13.0355 5.76488C12.7517 6.45011 12.6774 7.20412 12.822 7.93154C12.9667 8.65897 13.324 9.32716 13.8484 9.8516C14.3728 10.3761 15.041 10.7332 15.7684 10.8779C16.4958 11.0226 17.2499 10.9483 17.9351 10.6645C18.6203 10.3807 19.206 9.90002 19.618 9.28334C20.03 8.66665 20.25 7.94164 20.25 7.19995C20.25 6.20539 19.855 5.25156 19.1516 4.5483C18.4484 3.84504 17.4946 3.44995 16.5 3.44995ZM16.5 9.44995C16.055 9.44995 15.6199 9.31799 15.25 9.07076C14.88 8.82353 14.5915 8.47212 14.4212 8.06099C14.251 7.64986 14.2064 7.19746 14.2932 6.761C14.3801 6.32454 14.5944 5.92363 14.909 5.60896C15.2237 5.29429 15.6246 5.08 16.061 4.99319C16.4975 4.90637 16.9499 4.95092 17.361 5.12123C17.7721 5.29152 18.1236 5.5799 18.3708 5.94992C18.618 6.31993 18.75 6.75494 18.75 7.19995C18.75 7.79669 18.513 8.36898 18.091 8.79095C17.669 9.2129 17.0968 9.44995 16.5 9.44995Z" fill="#022F36"/>
</svg>
