<svg width="24" height="24" viewBox="0 0 24 24" fill="none" xmlns="http://www.w3.org/2000/svg">
<g clip-path="url(#clip0_13_2972)">
<path d="M21.375 0.1875H2.625C2.12772 0.1875 1.65081 0.385044 1.29917 0.736674C0.947544 1.08831 0.75 1.56522 0.75 2.0625V8.95078C0.75 19.452 9.63516 22.9359 11.4141 23.5278C11.794 23.6569 12.206 23.6569 12.5859 23.5278C14.3672 22.9359 23.25 19.452 23.25 8.95078V2.0625C23.25 1.56522 23.0525 1.08831 22.7008 0.736674C22.3492 0.385044 21.8722 0.1875 21.375 0.1875ZM21.375 8.95195C21.375 18.1418 13.5996 21.2121 12 21.7465C10.4145 21.2179 2.625 18.15 2.625 8.95195V2.0625H21.375V8.95195ZM6.64921 12.1008C6.47331 11.9249 6.37448 11.6863 6.37448 11.4375C6.37448 11.1887 6.47331 10.9501 6.64921 10.7742C6.82513 10.5983 7.06372 10.4995 7.3125 10.4995C7.56128 10.4995 7.79987 10.5983 7.97579 10.7742L10.125 12.9234L16.0242 7.02421C16.1114 6.93711 16.2147 6.86802 16.3286 6.82087C16.4424 6.77374 16.5644 6.74948 16.6875 6.74948C16.8106 6.74948 16.9326 6.77374 17.0464 6.82087C17.1603 6.86802 17.2636 6.93711 17.3508 7.02421C17.438 7.11132 17.507 7.21473 17.5541 7.32854C17.6013 7.44234 17.6255 7.56432 17.6255 7.6875C17.6255 7.81068 17.6013 7.93266 17.5541 8.04646C17.507 8.16027 17.438 8.26368 17.3508 8.35079L10.7883 14.9133C10.7012 15.0005 10.5978 15.0696 10.484 15.1168C10.3702 15.1639 10.2482 15.1882 10.125 15.1882C10.0018 15.1882 9.87981 15.1639 9.76599 15.1168C9.65219 15.0696 9.54879 15.0005 9.46171 14.9133L6.64921 12.1008Z" fill="#022F36"/>
</g>
<defs>
<clipPath id="clip0_13_2972">
<rect width="24" height="24" fill="white"/>
</clipPath>
</defs>
</svg>
