<svg width="24" height="24" viewBox="0 0 24 24" fill="none" xmlns="http://www.w3.org/2000/svg">
<path d="M12.0001 1.16675C9.85746 1.16675 7.76294 1.80211 5.98142 2.99249C4.19988 4.18288 2.81134 5.87481 1.99139 7.85435C1.17144 9.83388 0.956907 12.0121 1.37491 14.1135C1.79292 16.215 2.8247 18.1453 4.33976 19.6603C5.85483 21.1754 7.78515 22.2073 9.88662 22.6253C11.9881 23.0433 14.1663 22.8287 16.1458 22.0087C18.1254 21.1889 19.8173 19.8003 21.0077 18.0187C22.1981 16.2373 22.8334 14.1427 22.8334 12.0001C22.8304 9.12783 21.6881 6.37409 19.657 4.34311C17.6261 2.31212 14.8723 1.16978 12.0001 1.16675ZM9.25322 16.1667H14.747C14.1875 18.0771 13.2501 19.799 12.0001 21.1553C10.7501 19.799 9.81259 18.0771 9.25322 16.1667ZM8.87508 14.5001C8.5987 12.8449 8.5987 11.1553 8.87508 9.50008H15.1251C15.4014 11.1553 15.4014 12.8449 15.1251 14.5001H8.87508ZM2.83342 12.0001C2.8327 11.1547 2.94944 10.3133 3.1803 9.50008H7.18655C6.93794 11.1575 6.93794 12.8427 7.18655 14.5001H3.1803C2.94944 13.6869 2.8327 12.8455 2.83342 12.0001ZM14.747 7.83342H9.25322C9.81259 5.923 10.7501 4.20112 12.0001 2.84487C13.2501 4.20112 14.1875 5.923 14.747 7.83342ZM16.8137 9.50008H20.8198C21.2824 11.1347 21.2824 12.8655 20.8198 14.5001H16.8137C17.0622 12.8427 17.0622 11.1575 16.8137 9.50008ZM20.1637 7.83342H16.473C16.0477 6.15999 15.3336 4.57367 14.3626 3.14592C15.603 3.47927 16.7601 4.06855 17.7591 4.87584C18.7582 5.68314 19.5773 6.69059 20.1637 7.83342ZM9.63759 3.14592C8.66664 4.57367 7.95244 6.15999 7.52718 7.83342H3.83655C4.42292 6.69059 5.24199 5.68314 6.24107 4.87584C7.24015 4.06855 8.39712 3.47927 9.63759 3.14592ZM3.83655 16.1667H7.52718C7.95244 17.8402 8.66664 19.4265 9.63759 20.8542C8.39712 20.5209 7.24015 19.9317 6.24107 19.1243C5.24199 18.317 4.42292 17.3095 3.83655 16.1667ZM14.3626 20.8542C15.3336 19.4265 16.0477 17.8402 16.473 16.1667H20.1637C19.5773 17.3095 18.7582 18.317 17.7591 19.1243C16.7601 19.9317 15.603 20.5209 14.3626 20.8542Z" fill="#022F36"/>
</svg>
