<svg width="104" height="104" viewBox="0 0 104 104" fill="none" xmlns="http://www.w3.org/2000/svg">
<path d="M57.1155 19.4988C38.1496 18.1726 21.705 32.5633 20.3721 51.6241C19.0392 70.6849 33.3198 87.2227 52.287 88.5486C71.2528 89.8752 87.6974 75.4861 89.0302 56.4251C90.363 37.3643 76.0814 20.8251 57.1155 19.4988Z" fill="#022F36"/>
<path d="M55.2084 18.6214C36.9224 17.3427 21.0553 31.2185 19.769 49.6131C18.4827 68.0075 32.2631 83.9551 50.5504 85.2338C68.8363 86.5125 84.7034 72.6381 85.9896 54.2436C87.2759 35.8491 73.4943 19.9001 55.2084 18.6214Z" fill="white"/>
<path fill-rule="evenodd" clip-rule="evenodd" d="M18.5503 49.5278C19.8832 30.4669 36.3279 16.0763 55.2937 17.4025C74.2596 18.7287 88.5416 35.268 87.2086 54.3288C85.8757 73.3898 69.431 87.7786 50.4653 86.4527C31.4981 85.1264 17.2175 68.5886 18.5503 49.5278ZM55.1233 19.8402C37.5173 18.6091 22.2276 31.97 20.9879 49.6982C19.7483 67.4264 33.0283 82.7837 50.6357 84.0151C68.2418 85.2462 83.5313 71.8865 84.771 54.1584C86.0106 36.4302 72.7292 21.0714 55.1233 19.8402Z" fill="#022F36"/>
<path fill-rule="evenodd" clip-rule="evenodd" d="M53.0284 29.1577L52.7425 33.2474C52.6909 33.9853 52.1247 34.5575 51.4264 34.6565C45.7229 35.4655 42.4835 38.8519 42.1761 43.2498C42.0018 45.7411 42.7848 47.6452 44.2898 49.2487C45.8385 50.8989 48.1835 52.2607 51.1648 53.5077L51.166 53.5082C53.2923 54.4005 54.9428 55.2891 56.0472 56.3181C57.2104 57.402 57.795 58.6729 57.6887 60.1922C57.5756 61.8116 56.6723 63.0173 55.3322 63.7311C54.0454 64.4165 52.3837 64.6445 50.5998 64.5197C47.2358 64.2846 44.2157 63.1574 41.8747 61.8638L40.4077 66.3012C42.3552 67.4005 45.3375 68.4002 48.5161 68.8073C49.3112 68.9091 49.9075 69.6129 49.8503 70.4318L49.5674 74.477L52.9091 74.7107L53.2233 70.2177C53.2758 69.466 53.8609 68.8898 54.572 68.8043C60.6805 68.0699 64.0283 64.3157 64.3416 59.8347C64.5094 57.4353 64.0106 55.5673 62.779 53.9594C61.5158 52.3102 59.3972 50.8238 56.1081 49.3907L56.0968 49.3857L56.0855 49.3806C53.6857 48.2742 51.8741 47.3259 50.6771 46.3644C49.4407 45.3713 48.6776 44.2097 48.7823 42.7132C48.8613 41.5828 49.3784 40.4355 50.5339 39.6478C51.6526 38.8852 53.2292 38.5548 55.2666 38.6972C58.6912 38.9367 61.1176 39.9617 62.726 40.7644L64.1284 36.5284C62.5488 35.742 60.4386 35.0263 57.4523 34.6503C56.6553 34.55 56.0581 33.845 56.1154 33.0257L56.3695 29.3913L53.0284 29.1577ZM50.7341 28.165C50.793 27.3233 51.523 26.6887 52.3647 26.7476L57.3622 27.097C58.2039 27.1559 58.8385 27.886 58.7797 28.7277L58.5216 32.418C61.781 32.9106 64.1066 33.802 65.8842 34.7883C66.5365 35.1503 66.8145 35.9176 66.5889 36.5991L64.6586 42.4292C64.366 43.3129 63.3478 43.7431 62.5054 43.3027L62.4616 43.2798C60.9778 42.5041 58.6732 41.2992 55.1021 41.0495C53.3628 40.9278 52.3837 41.2405 51.8621 41.5961C51.3773 41.9266 51.1699 42.3724 51.1345 42.8778C51.1042 43.311 51.2477 43.7984 52.1537 44.5261C53.0974 45.284 54.6602 46.1266 57.0615 47.2341C60.5095 48.7377 63.0404 50.423 64.6509 52.5255C66.2947 54.6715 66.8939 57.138 66.6938 59.9992C66.3032 65.5854 62.1924 70.0032 55.5287 71.0518L55.2034 75.7033C55.1445 76.545 54.4145 77.1797 53.5728 77.1208L48.5748 76.7713C47.7331 76.7125 47.0985 75.9824 47.1573 75.1407L47.4443 71.0361C43.9673 70.4912 40.6875 69.3086 38.5777 67.9507C37.979 67.5655 37.7478 66.835 37.9596 66.1942L39.9559 60.1559C40.2714 59.2016 41.3869 58.8243 42.2154 59.3336C44.4168 60.6872 47.4218 61.9338 50.7643 62.1676C52.292 62.2744 53.4639 62.0547 54.2236 61.65C54.93 61.2736 55.2863 60.7467 55.3366 60.0277C55.3856 59.3268 55.1674 58.7212 54.4398 58.0433C53.6534 57.3105 52.3252 56.552 50.2548 55.683C47.1665 54.3912 44.4584 52.8739 42.5705 50.8624C40.6387 48.804 39.6016 46.2637 39.8238 43.0853C40.2111 37.5473 44.243 33.5326 50.4361 32.4274L50.7341 28.165Z" fill="#022F36"/>
</svg>
