<svg width="104" height="104" viewBox="0 0 104 104" fill="none" xmlns="http://www.w3.org/2000/svg">
<path d="M84.0677 82.6979C83.2279 76.8062 80.8028 71.2487 77.0488 66.6128C73.5304 62.2685 68.9683 58.885 63.7915 56.7708C63.4254 56.6213 63.4175 56.0828 63.7749 55.9134C68.0517 53.8856 71.2939 50.1554 72.6777 45.6137C74.1711 40.7128 73.338 35.3997 70.4139 31.1802C67.4899 26.9608 62.7942 24.2937 57.6554 23.9343C52.5165 23.575 47.4952 25.5627 44.0125 29.334C40.5298 33.1054 38.9654 38.251 39.7621 43.312C40.5003 48.002 43.1919 52.1474 47.1447 54.7505C47.475 54.968 47.3924 55.5002 47.009 55.5973C41.5883 56.9703 36.5994 59.6853 32.5111 63.4978C28.1483 67.566 24.9733 72.732 23.3218 78.4499C22.7632 80.3473 23.1023 82.3947 24.2431 84.015C25.3559 85.6044 27.1338 86.6065 29.0762 86.7376L77.2157 90.1042C79.1569 90.244 81.0568 89.4994 82.3788 88.0801C83.7346 86.6345 84.3562 84.6544 84.0677 82.6979Z" fill="#022F36"/>
<path d="M82.2298 79.7095C81.39 73.8177 78.9649 68.2602 75.2109 63.6243C71.6924 59.28 67.1304 55.8964 61.9536 53.7824C61.5875 53.6328 61.5797 53.0944 61.937 52.9249C66.2137 50.8971 69.4561 47.1669 70.8399 42.6253C72.3332 37.7242 71.5001 32.4112 68.5761 28.1917C65.652 23.9724 60.9564 21.3052 55.8175 20.9458C50.6786 20.5865 45.6574 22.5742 42.1747 26.3456C38.6919 30.1169 37.1275 35.2625 37.9241 40.3235C38.6625 45.0136 41.354 49.1588 45.3068 51.7621C45.6372 51.9796 45.5545 52.5117 45.1711 52.6088C39.7504 53.9818 34.7615 56.6968 30.6732 60.5093C26.3105 64.5776 23.1354 69.7436 21.4838 75.4614C20.9253 77.3587 21.2644 79.4062 22.4052 81.0265C23.518 82.6159 25.2959 83.618 27.2384 83.749L75.3778 87.1153C77.319 87.2552 79.219 86.5109 80.5409 85.0917C81.8967 83.6461 82.5181 81.666 82.2298 79.7095Z" fill="white"/>
<path fill-rule="evenodd" clip-rule="evenodd" d="M41.1893 25.4361C44.949 21.3647 50.3675 19.2209 55.9105 19.6085C61.4535 19.9962 66.5208 22.8732 69.6774 27.4281C72.8344 31.9838 73.7347 37.722 72.1216 43.0159C70.8062 47.3332 67.9366 50.9696 64.1216 53.2712C68.8221 55.4847 72.9725 58.7313 76.2521 62.7806C80.1582 67.6043 82.6824 73.3879 83.5564 79.5203C83.5553 79.5121 83.554 79.5032 83.5524 79.4939C83.5538 79.5023 83.5551 79.5111 83.5564 79.5203C83.5572 79.5254 83.5579 79.5308 83.5586 79.5363C83.8986 81.8903 83.1484 84.2693 81.5199 86.0068C79.9202 87.7235 77.6241 88.6211 75.2809 88.4524L27.1476 85.0865C27.1467 85.0864 27.1458 85.0864 27.145 85.0863C24.8007 84.9273 22.6534 83.7179 21.3077 81.7968C19.9334 79.8442 19.5235 77.3753 20.1965 75.086C21.9157 69.1361 25.2197 63.7612 29.7584 59.5289C33.5692 55.9751 38.1315 53.3383 43.0943 51.8008C39.6368 48.9907 37.3012 44.9903 36.5994 40.5319C35.7389 35.0651 37.429 29.5079 41.1893 25.4361ZM83.4816 79.2315C83.4782 79.2227 83.4745 79.2133 83.4706 79.2037C83.4741 79.2122 83.4777 79.2215 83.4816 79.2315ZM55.7235 22.2831C50.9888 21.952 46.3647 23.7835 43.159 27.255C39.9537 30.7258 38.5151 35.4598 39.2479 40.115C39.927 44.4292 42.4033 48.245 46.0436 50.6425C47.31 51.4764 47.0559 53.5141 45.4997 53.9082C40.2969 55.2261 35.5094 57.8316 31.5869 61.4897C27.401 65.393 24.3553 70.349 22.7712 75.8333L22.7702 75.8367L22.7693 75.84C22.3264 77.344 22.5948 78.9679 23.5008 80.2547L23.5018 80.2561L23.5029 80.2576C24.3823 81.5138 25.7891 82.3077 27.3281 82.4116L27.3297 82.4116L75.4737 85.7782C77.012 85.8891 78.5154 85.2989 79.5595 84.178L79.5611 84.1763L79.5626 84.1747C80.6394 83.0265 81.1315 81.4557 80.903 79.9049C80.9042 79.9132 80.9055 79.9221 80.9072 79.9316C80.9057 79.9231 80.9043 79.9143 80.903 79.9049C80.9017 79.8965 80.9006 79.8878 80.8994 79.8788C80.0913 74.2349 77.7663 68.9107 74.1686 64.4678C70.7926 60.2995 66.4148 57.0524 61.4463 55.0233C59.9602 54.4164 59.9922 52.3633 61.3622 51.7137C65.3008 49.8461 68.2841 46.4121 69.557 42.2344C70.9306 37.7264 70.1649 32.8385 67.4737 28.9552C64.7822 25.0714 60.4582 22.6141 55.7235 22.2831ZM80.977 80.1876C80.9804 80.1964 80.9839 80.2056 80.9879 80.2152C80.9845 80.2068 80.9808 80.1975 80.977 80.1876Z" fill="#022F36"/>
</svg>
