<svg width="104" height="104" viewBox="0 0 104 104" fill="none" xmlns="http://www.w3.org/2000/svg">
<path d="M45.9428 18.318C45.2702 18.271 44.6591 18.7086 44.4871 19.3605L35.9602 51.6726C35.7354 52.5242 36.3412 53.3701 37.2199 53.4316L47.2672 54.1341L37.8316 85.8639C37.388 87.3555 39.3394 88.3537 40.2895 87.1215L72.4374 45.4197C73.1217 44.532 72.5414 43.2398 71.4232 43.1617L60.7376 42.4153L69.9051 21.8841C70.3027 20.9935 69.6938 19.9789 68.7209 19.9109L45.9428 18.318Z" fill="#022F36"/>
<path d="M57.8333 41.3032C57.592 41.2863 57.441 41.0346 57.5395 40.8138L67.1197 19.3587C67.2183 19.1378 67.0673 18.8861 66.826 18.8693L44.0479 17.2765C43.881 17.2648 43.7295 17.3733 43.6868 17.535L35.1599 49.8471C35.1041 50.0583 35.2544 50.2681 35.4723 50.2833L46.4001 51.0475C46.6224 51.063 46.7731 51.2805 46.7096 51.4941L37.0224 84.07C36.9124 84.44 37.3963 84.6876 37.6319 84.3819L69.7799 42.6801C69.9496 42.46 69.8057 42.1395 69.5284 42.1201L57.8333 41.3032Z" fill="white"/>
<path fill-rule="evenodd" clip-rule="evenodd" d="M42.6657 17.2656C42.8377 16.6138 43.4487 16.1761 44.1212 16.2232L66.8994 17.816C67.8723 17.884 68.4813 18.8987 68.0836 19.7892L58.9161 40.3203L69.6018 41.0668C70.7199 41.1449 71.3003 42.4371 70.616 43.3248L38.468 85.0266C37.5178 86.2591 35.5665 85.2607 36.01 83.7691L45.4456 52.0392L35.3984 51.3367C34.5198 51.2752 33.9139 50.4293 34.1386 49.5777L42.6657 17.2656ZM44.5581 18.3707L36.3988 49.2896L46.4736 49.9941C47.37 50.0568 47.9776 50.9338 47.7215 51.7951L39.1191 80.723L68.137 43.0814L57.7595 42.3566C56.7865 42.2886 56.1775 41.2738 56.5752 40.3833L65.7427 19.8521L44.5581 18.3707Z" fill="#022F36"/>
</svg>
