<svg width="24" height="24" viewBox="0 0 24 24" fill="none" xmlns="http://www.w3.org/2000/svg">
<g clip-path="url(#clip0_13_2956)">
<path d="M15.2142 9.21425H14.7857V8.78568V2.35711V1.92854H15.2142H21.6428H22.0714V2.35711V8.78568V9.21425H21.6428H15.2142ZM2.35711 9.21425H1.92854V8.78568V2.35711V1.92854H2.35711H8.78568H9.21425V2.35711V8.78568V9.21425H8.78568H2.35711ZM15.2142 22.0714H14.7857V21.6428V15.2142V14.7857H15.2142H21.6428H22.0714V15.2142V21.6428V22.0714H21.6428H15.2142ZM2.35711 22.0714H1.92854V21.6428V15.2142V14.7857H2.35711H8.78568H9.21425V15.2142V21.6428V22.0714H8.78568H2.35711ZM21.6428 0.642822H15.2142C14.7596 0.642822 14.3236 0.823434 14.0021 1.14492C13.6806 1.46642 13.5 1.90245 13.5 2.35711V8.78568C13.5 9.24034 13.6806 9.67637 14.0021 9.99787C14.3236 10.3193 14.7596 10.5 15.2142 10.5H21.6428C22.0975 10.5 22.5336 10.3193 22.855 9.99787C23.1764 9.67637 23.3571 9.24034 23.3571 8.78568V2.35711C23.3571 1.90245 23.1764 1.46641 22.855 1.14492C22.5336 0.823434 22.0975 0.642822 21.6428 0.642822ZM8.78568 0.642822H2.35711C1.90245 0.642822 1.46642 0.823434 1.14492 1.14492C0.823434 1.46642 0.642822 1.90245 0.642822 2.35711V8.78568C0.642822 9.24034 0.823434 9.67637 1.14492 9.99787C1.46642 10.3193 1.90245 10.5 2.35711 10.5H8.78568C9.24034 10.5 9.67637 10.3193 9.99787 9.99787C10.3193 9.67637 10.5 9.24034 10.5 8.78568V2.35711C10.5 1.90245 10.3193 1.46642 9.99787 1.14492C9.67637 0.823434 9.24034 0.642822 8.78568 0.642822ZM21.6428 13.5H15.2142C14.7596 13.5 14.3236 13.6806 14.0021 14.0021C13.6806 14.3236 13.5 14.7596 13.5 15.2142V21.6428C13.5 22.0975 13.6806 22.5336 14.0021 22.855C14.3236 23.1764 14.7596 23.3571 15.2142 23.3571H21.6428C22.0975 23.3571 22.5336 23.1764 22.855 22.855C23.1764 22.5336 23.3571 22.0975 23.3571 21.6428V15.2142C23.3571 14.7596 23.1764 14.3236 22.855 14.0021C22.5336 13.6806 22.0975 13.5 21.6428 13.5ZM8.78568 13.5H2.35711C1.90245 13.5 1.46642 13.6806 1.14492 14.0021C0.823434 14.3236 0.642822 14.7596 0.642822 15.2142V21.6428C0.642822 22.0975 0.823434 22.5336 1.14492 22.855C1.46642 23.1764 1.90245 23.3571 2.35711 23.3571H8.78568C9.24034 23.3571 9.67637 23.1764 9.99787 22.855C10.3193 22.5336 10.5 22.0975 10.5 21.6428V15.2142C10.5 14.7596 10.3193 14.3236 9.99787 14.0021C9.67637 13.6806 9.24034 13.5 8.78568 13.5Z" fill="#022F36" stroke="#022F36" stroke-width="0.857143"/>
</g>
<defs>
<clipPath id="clip0_13_2956">
<rect width="24" height="24" fill="white"/>
</clipPath>
</defs>
</svg>
