<svg width="1661" height="1691" viewBox="0 0 1661 1691" fill="none" xmlns="http://www.w3.org/2000/svg">
<path d="M9.15721 25.5415C-6.15668 21.1435 -0.89772 -2.4761 14.8482 0.212607C55.1767 7.09916 96.0662 22.841 135.179 34.7829C240.814 67.0362 345.415 103.249 447.111 146.451C499.126 168.547 550.388 192.319 600.548 218.364C637.085 237.335 672.889 257.72 707.811 279.524C735.038 296.524 761.568 314.635 787.312 333.805C920.442 432.945 1087.11 625.219 942.065 786.74C919.208 812.193 891.755 832.799 862.094 849.679C716.777 932.379 520.369 935.487 360.386 904.263C347.877 901.822 335.453 899.041 323.127 895.8C280.106 884.486 178.742 847.014 212.093 783.656C232.708 744.494 287.881 733.053 327.543 727.813C438.506 713.152 554.729 740.813 658.683 777.689C1073.88 924.97 1417.64 1295.91 1656.76 1652.38C1672.11 1675.25 1642.48 1702.94 1620.91 1685.46C1607.6 1674.69 1598.68 1654.62 1589 1640.65C1567.91 1610.23 1546.36 1580.13 1524.33 1550.39C1457.85 1460.63 1386.98 1374.05 1310.97 1292.19C1131.98 1099.45 919.635 924.54 672.681 827.21C567.2 785.638 446.975 752.845 332.528 766.899C318.866 768.576 305.252 771.065 292.026 774.921C239.713 790.178 226.884 813.671 281.233 840.467C331.01 865.01 389.499 872.986 444.06 878.379C590.093 892.809 790.478 884.513 904.048 776.941C919.065 762.716 932.284 746.499 942.403 728.422C1024.37 581.983 861.935 426.721 755.715 348.918C729.928 330.03 703.284 312.322 676.073 295.56C640.967 273.933 604.912 253.867 568.246 235.014C521.302 210.877 473.344 188.738 424.764 168.107C365.122 142.778 304.514 119.742 243.314 98.4601C166.032 71.5849 87.7804 48.1216 9.15721 25.5415Z" fill="#F8FF9B"/>
</svg>
